<?xml version="1.0" encoding="UTF-8" standalone="no"?>
<svg width="42px" height="42px" viewBox="0 0 42 42" version="1.1" xmlns="http://www.w3.org/2000/svg" xmlns:xlink="http://www.w3.org/1999/xlink" xmlns:sketch="http://www.bohemiancoding.com/sketch/ns">
    <title>Happy</title>
    <description>Created with Sketch (http://www.bohemiancoding.com/sketch)</description>
    <defs></defs>
    <g id="Page-1" stroke="none" stroke-width="1" fill="none" fill-rule="evenodd" sketch:type="MSPage">
        <g id="Homepage-View" sketch:type="MSArtboardGroup" transform="translate(-813.000000, -595.000000)">
            <g id="Group" sketch:type="MSLayerGroup" transform="translate(814.000000, 596.000000)">
                <path d="M20,40 C31.0456955,40 40,31.0456955 40,20 C40,8.95430446 31.0456955,0 20,0 C8.95430446,0 0,8.95430446 0,20 C0,31.0456955 8.95430446,40 20,40 Z" id="Oval-1" stroke="#23AD4B" stroke-width="2" fill="#3FFF77" sketch:type="MSShapeGroup"></path>
                <path d="M13,18 C14.1045696,18 15,17.1045696 15,16 C15,14.8954304 14.1045696,14 13,14 C11.8954304,14 11,14.8954304 11,16 C11,17.1045696 11.8954304,18 13,18 Z" id="Oval-2" fill="#23AD4B" sketch:type="MSShapeGroup"></path>
                <path d="M28,18 C29.1045696,18 30,17.1045696 30,16 C30,14.8954304 29.1045696,14 28,14 C26.8954304,14 26,14.8954304 26,16 C26,17.1045696 26.8954304,18 28,18 Z" id="Oval-2" fill="#23AD4B" sketch:type="MSShapeGroup"></path>
                <path d="M20,35 C26.0751325,35 31,30.2389026 31,24.3657906 C31,21.3867575 28.4670817,22.0668178 20,22.0668178 C11.5329183,22.0668185 9,21.4717117 9,24.3657906 C9,30.2389026 13.9248675,35 20,35 Z" id="Oval-4" stroke="#23AD4B" fill="#23AD4B" sketch:type="MSShapeGroup"></path>
            </g>
        </g>
    </g>
</svg>